<mxfile host="app.diagrams.net" modified="2023-05-03T15:32:23.821Z" agent="Mozilla/5.0 (Macintosh; Intel Mac OS X 10_15_7) AppleWebKit/537.36 (KHTML, like Gecko) Chrome/111.0.0.0 Safari/537.36" version="21.2.7" etag="_9Ho4kNQv_R0ynGL1EpO" type="github">
  <diagram name="Page-1" id="29tTRTXa7O1EPGwmMSzE">
    <mxGraphModel>
      <root>
        <mxCell id="0" />
        <mxCell id="1" parent="0" />
      </root>
    </mxGraphModel>
  </diagram>
</mxfile>
